<svg width="324" height="126" viewBox="0 0 324 126" fill="none" xmlns="http://www.w3.org/2000/svg">
<path d="M261 0H252V90H261V0Z" fill="#2D6BFA"/>
<path d="M27 36C12.0883 36 0 48.0883 0 63V126H9V63C9 53.0589 17.0589 45 27 45C36.9411 45 45 53.0589 45 63C45 72.9411 36.9411 81 27 81H18V90H27C41.9117 90 54 77.9117 54 63C54 48.0883 41.9117 36 27 36Z" fill="#2D6BFA"/>
<path d="M287.462 47.7352C279.032 53.0032 276.468 64.1081 281.736 72.5386C287.004 80.9692 298.109 83.533 306.54 78.265L316.338 72.1424L321.107 79.7749L311.309 85.8974C298.663 93.7994 282.006 89.9537 274.104 77.3079C266.202 64.6621 270.047 48.0048 282.693 40.1028C295.339 32.2008 311.996 36.0464 319.898 48.6923L322.283 52.5085L293.982 70.1932L289.212 62.5607L309.4 49.9458C303.592 44.4209 294.575 43.2906 287.462 47.7352Z" fill="#2D6BFA"/>
<path fill-rule="evenodd" clip-rule="evenodd" d="M90 36C75.0883 36 63 48.0883 63 63C63 77.9117 75.0883 90 90 90C104.912 90 117 77.9117 117 63C117 48.0883 104.912 36 90 36ZM72 63C72 53.0589 80.0589 45 90 45C99.9411 45 108 53.0589 108 63C108 72.9411 99.9411 81 90 81C80.0589 81 72 72.9411 72 63Z" fill="#2D6BFA"/>
<path fill-rule="evenodd" clip-rule="evenodd" d="M126 63C126 48.0883 138.088 36 153 36C167.912 36 180 48.0883 180 63C180 77.9117 167.912 90 153 90C138.088 90 126 77.9117 126 63ZM153 45C143.059 45 135 53.0589 135 63C135 72.9411 143.059 81 153 81C162.941 81 171 72.9411 171 63C171 53.0589 162.941 45 153 45Z" fill="#2D6BFA"/>
<path d="M233.979 36H189.211V45H233.979L192.911 73.6158C185.683 78.652 189.247 90 198.056 90H243.211V81H198.056L239.125 52.3842C246.352 47.348 242.789 36 233.979 36Z" fill="#2D6BFA"/>
</svg>
