<svg width="180" height="70" viewBox="0 0 180 70" fill="none" xmlns="http://www.w3.org/2000/svg">
<g clip-path="url(#clip0_212_266)">
<path d="M145 0H140V50H145V0Z" fill="#1A1A22"/>
<path d="M15.0001 20C6.71579 20 6.10352e-05 26.7157 6.10352e-05 35V70H5.00006V35C5.00006 29.4772 9.47721 25 15.0001 25C20.5229 25 25.0001 29.4772 25.0001 35C25.0001 40.5228 20.5229 45 15.0001 45H10.0001V50H15.0001C23.2843 50 30.0001 43.2843 30.0001 35C30.0001 26.7157 23.2843 20 15.0001 20Z" fill="#1A1A22"/>
<path d="M159.701 26.5196C155.018 29.4462 153.593 35.6156 156.52 40.2992C159.447 44.9829 165.616 46.4072 170.3 43.4805L175.743 40.0791L178.393 44.3194L172.949 47.7208C165.924 52.1108 156.67 49.9743 152.28 42.9488C147.89 35.9234 150.026 26.6693 157.052 22.2793C164.077 17.8893 173.331 20.0258 177.721 27.0513L179.046 29.1714L163.323 38.9962L160.674 34.756L171.889 27.7477C168.662 24.6783 163.653 24.0504 159.701 26.5196Z" fill="#1A1A22"/>
<path fill-rule="evenodd" clip-rule="evenodd" d="M50.0001 20C41.7158 20 35.0001 26.7157 35.0001 35C35.0001 43.2843 41.7158 50 50.0001 50C58.2843 50 65.0001 43.2843 65.0001 35C65.0001 26.7157 58.2843 20 50.0001 20ZM40.0001 35C40.0001 29.4772 44.4772 25 50.0001 25C55.5229 25 60.0001 29.4772 60.0001 35C60.0001 40.5228 55.5229 45 50.0001 45C44.4772 45 40.0001 40.5228 40.0001 35Z" fill="#1A1A22"/>
<path fill-rule="evenodd" clip-rule="evenodd" d="M70.0001 35C70.0001 26.7157 76.7158 20 85.0001 20C93.2843 20 100 26.7157 100 35C100 43.2843 93.2843 50 85.0001 50C76.7158 50 70.0001 43.2843 70.0001 35ZM85.0001 25C79.4772 25 75.0001 29.4772 75.0001 35C75.0001 40.5228 79.4772 45 85.0001 45C90.5229 45 95.0001 40.5228 95.0001 35C95.0001 29.4772 90.5229 25 85.0001 25Z" fill="#1A1A22"/>
<path d="M129.989 20H105.118V25H129.989L107.173 40.8977C103.158 43.6956 105.137 50 110.031 50H135.118V45H110.031L132.847 29.1023C136.863 26.3044 134.883 20 129.989 20Z" fill="#1A1A22"/>
</g>
<defs>
<clipPath id="clip0_212_266">
<rect width="180" height="70" fill="white"/>
</clipPath>
</defs>
</svg>
