<svg width="361" height="132" viewBox="0 0 361 132" fill="none" xmlns="http://www.w3.org/2000/svg">
<path d="M290.379 0H279.179V96.4078H290.379V0Z" fill="#1971c2"/>
<path d="M30.1 36.2078C13.4762 36.2078 0 49.6841 0 66.3078V131.408H11.2V66.3078C11.2 55.8696 19.6618 47.4078 30.1 47.4078C40.5382 47.4078 49 55.8696 49 66.3078C49 76.746 40.5382 85.2078 30.1 85.2078H19.6V96.4078H30.1C46.7238 96.4078 60.2 82.9316 60.2 66.3078C60.2 49.6841 46.7238 36.2078 30.1 36.2078Z" fill="#1971c2"/>
<path fill-rule="evenodd" clip-rule="evenodd" d="M67.7294 66.3078C67.7294 49.6841 81.2056 36.2078 97.8294 36.2078C114.453 36.2078 127.929 49.6841 127.929 66.3078C127.929 82.9316 114.453 96.4078 97.8294 96.4078C81.2056 96.4078 67.7294 82.9316 67.7294 66.3078ZM97.8294 47.4078C87.3912 47.4078 78.9294 55.8696 78.9294 66.3078C78.9294 76.746 87.3912 85.2078 97.8294 85.2078C108.268 85.2078 116.729 76.746 116.729 66.3078C116.729 55.8696 108.268 47.4078 97.8294 47.4078Z" fill="#1971c2"/>
<path fill-rule="evenodd" clip-rule="evenodd" d="M166.734 36.2078C150.111 36.2078 136.634 49.6841 136.634 66.3078C136.634 82.9316 150.111 96.4078 166.734 96.4078C183.358 96.4078 196.834 82.9316 196.834 66.3078C196.834 49.6841 183.358 36.2078 166.734 36.2078ZM147.834 66.3078C147.834 55.8696 156.296 47.4078 166.734 47.4078C177.173 47.4078 185.634 55.8696 185.634 66.3078C185.634 76.746 177.173 85.2078 166.734 85.2078C156.296 85.2078 147.834 76.746 147.834 66.3078Z" fill="#1971c2"/>
<path d="M321.2 50.5529C312.348 56.0843 309.656 67.7444 315.187 76.5965C320.718 85.4486 332.379 88.1405 341.231 82.6091L351.9 75.9424L357.835 85.4405L347.166 92.1072C333.068 100.917 314.498 96.6293 305.689 82.5316C296.88 68.4338 301.167 49.864 315.265 41.0547C329.362 32.2455 347.932 36.5327 356.741 50.6304L360.162 56.1047L327.465 76.5359L321.53 67.0378L344.22 52.8599C338.12 47.0709 328.662 45.8899 321.2 50.5529Z" fill="#1971c2"/>
<path d="M205.07 47.4078H253.805L211.093 77.3059C202.683 83.193 206.849 96.4078 217.115 96.4078H268.07V85.2078H219.335L262.047 55.3098C270.457 49.4226 266.292 36.2078 256.026 36.2078H205.07V47.4078Z" fill="#1971c2"/>
</svg>
