<svg width="250" height="250" viewBox="0 0 250 250" fill="none" xmlns="http://www.w3.org/2000/svg">
<g clip-path="url(#clip0_1789_6936)">
<path d="M141.953 18.1991C118.037 18.1991 104.206 28.8648 97.5343 36.2334C96.7416 29.8838 92.5271 21.6465 76.0851 21.6465H40.3789V58.7964H55.0124C57.4881 58.7964 58.2855 59.582 58.2855 62.0382V231.664H100.849V168C100.849 166.281 100.814 164.675 100.77 163.238C107.419 169.308 120.116 177.663 139.949 177.663C181.551 177.663 210.636 144.885 210.636 97.938C210.636 50.2472 183.02 18.1991 141.953 18.1991ZM133.306 140.814C110.392 140.814 99.9822 119.006 99.9822 98.8022C99.9822 66.9783 117.491 55.6355 133.875 55.6355C153.967 55.6355 167.48 72.8541 167.48 98.5041C167.48 127.754 150.301 140.814 133.308 140.814" fill="#231F1F"/>
<path d="M141.953 18.1991C118.037 18.1991 104.201 28.8648 97.5343 36.2311C96.737 29.8838 92.5271 21.6465 76.0851 21.6465H40.3789V58.7964H55.0124C57.4881 58.7964 58.2855 59.582 58.2855 62.0359V156.563C78.1764 149.695 98.1875 143.177 118.309 137.01C105.803 129.896 99.9822 113.909 99.9822 98.7976C99.9822 66.9806 117.491 55.6355 133.875 55.6355C153.967 55.6355 167.48 72.8541 167.48 98.5041C167.48 109.276 165.127 117.821 161.329 124.351C177.403 119.823 193.532 115.491 209.714 111.358C210.244 107.026 210.636 102.564 210.636 97.938C210.636 50.2472 183.02 18.1991 141.953 18.1991Z" fill="#3B3B3C"/>
</g>
<defs>
<clipPath id="clip0_1789_6936">
<rect width="171" height="214" fill="white" transform="translate(40 18)"/>
</clipPath>
</defs>
</svg>