<?xml version="1.0" encoding="utf-8"?>
<!-- Generator: Adobe Illustrator 19.2.1, SVG Export Plug-In . SVG Version: 6.00 Build 0)  -->
<svg version="1.1" id="layer" xmlns="http://www.w3.org/2000/svg" xmlns:xlink="http://www.w3.org/1999/xlink" x="0px" y="0px"
	 viewBox="0 0 652 652" style="enable-background:new 0 0 652 652;" xml:space="preserve">
<style type="text/css">
	.st0{fill:#084F99;}
	.st1{filter:url(#Adobe_OpacityMaskFilter);}
	.st2{fill:#FFFFFF;}
	.st3{mask:url(#b_1_);fill:#5EB7FF;}
	.st4{fill:#1479FB;}
	.st5{fill:#2B2B2B;}
</style>
<g>
	<path class="st0" d="M35.1,366l0.9,0.3c10.9,3.5,22.4-2.1,25.8-12.3L74,314.2c3.3-10.2-2.8-21.4-13.7-24.9l-0.9-0.3
		c-10.9-3.5-22.4,2.1-25.8,12.3l-12.3,39.8C18.1,351.3,24.2,362.5,35.1,366"/>
	<g transform="translate(22.1)">
		<defs>
			<filter id="Adobe_OpacityMaskFilter" filterUnits="userSpaceOnUse" x="91.7" y="239.1" width="92.7" height="159.8">
				<feColorMatrix  type="matrix" values="1 0 0 0 0  0 1 0 0 0  0 0 1 0 0  0 0 0 1 0"/>
			</filter>
		</defs>
		<mask maskUnits="userSpaceOnUse" x="91.7" y="239.1" width="92.7" height="159.8" id="b_1_">
			<g class="st1">
				<path id="a_1_" class="st2" d="M91.7,239.1h92.7V399H91.7V239.1z"/>
			</g>
		</mask>
		<path class="st3" d="M143.5,253.2c2.2-5.4,6.4-9.7,11.6-12.2c0.3-0.1,0.5-0.2,0.8-0.3c0.1-0.1,0.3-0.1,0.4-0.2
			c4.1-1.6,8.7-1.9,13.1-0.5l0.9,0.3c10.9,3.5,16.6,15.8,12.8,27.5l-29.8,100.5c-7.8,23.1-32.4,35.1-53.7,29.1c0,0-5.7-1.7-8.1-3.4
			C112.8,389.5,139.3,263.4,143.5,253.2"/>
	</g>
	<path class="st4" d="M38.5,379.2l0.9,0.3c4.5,1.4,9.2,1.6,13.8,0.5c0.7-0.1,1.4-0.3,2.1-0.6c8.7-2.8,16.3-9.9,19.5-19.8l23.2-76.4
		c3.8-11.6,15.8-18.3,26.6-14.9l0.9,0.3c10.9,3.5,16.6,15.8,12.8,27.5c0,0-22,72.4-25.1,78.5c-22.5,40.7-64.7,20.8-76.7,3.8
		C37.1,378.7,37.8,379,38.5,379.2"/>
	<g>
		<path class="st5" d="M535.8,299.5l0.1-0.4c0-0.3-0.1-0.6-0.2-0.8c-0.6-1.2-4-3.6-9.5-4.1c-0.5,0-1-0.1-1.4-0.1
			c-3.9,0-8.2,1.6-9.1,3.3l-0.1,0.2l-22.4,55.1l-21.6-55.3c-0.9-1.7-6-3.5-9.8-3.5c-0.2,0-0.6,0-0.9,0c-0.6,0-1.1-0.1-1.7,0
			c-5.4,0.6-7.3,2.9-8,4.2c-0.1,0.3-0.2,0.5-0.2,0.8l0,0.4c0.9,2.2,30.2,75.3,31.8,79.3l0.1,0.1c1.1,1.2,6.7,3,10.3,3
			c3.6,0,8.9-1.3,10-2.6l0.1-0.1l32.5-79.2C535.7,299.7,535.8,299.5,535.8,299.5z M425.6,350.2c0,5.7-1.4,9.8-4,11.5
			c-2.2,1.3-6.4,2.9-13.8,2.9l-0.8,0c-6.3,0-11.2-1.2-14.6-3.5c-2.6-1.8-4.1-4.3-4.1-6.9c0-7.8,4.4-9.2,17.5-9.5h19.8V350.2z
			 M443.8,378.5c0.1-0.2,0.2-0.5,0.2-0.8v-55.4c-0.1-10.5-3.5-18-10.1-22.3c-6.3-4.1-14.8-6.1-25.2-6.1l-1.8,0
			c-13.4,0-25.5,4.8-31.6,12.4c-0.1,0.1-0.2,0.3-0.2,0.5c-0.7,2.2,2.2,5.6,5.3,7.8c2.7,1.9,5.5,3.2,7.5,3.2c0.4-0.1,2.2-1.3,2.6-1.6
			c2-1.9,7.6-6.5,14.9-6.6l3.2-0.1c6.1,0,12,2.8,14.7,5.5c1.6,1.6,2.4,3.7,2.3,6.4v8.2h-26.5c-9.2,0.1-16.3,2.6-21.1,7.5
			c-4.8,4.8-7.3,10.9-7.3,18.1c0,7.6,2.8,13.9,8.3,18.7c5.5,5.2,16.9,7.6,25.9,7.7c5.8,0,10.5-0.7,13.8-2.2c2-0.8,3.8-1.9,5.2-3.3
			l1.6-1.6v3.2c0,0.3,0.1,0.6,0.2,0.8c1,2.1,5.4,3,9,3S442.9,380.6,443.8,378.5L443.8,378.5z M558.5,327.1
			c1.1-8.3,3.7-11.9,7.2-14.8c3.7-2.9,8.1-3.6,14.5-3.8c5.4-0.2,12.2,2.1,15.3,5.1c3,3.1,4.8,7.5,5.3,13.3l0.1,1l-42.6,0.3
			L558.5,327.1z M618.4,367.5c0.6-2.3-2.4-5.8-5.4-8c-2.6-1.9-5.4-3.1-7.6-3.2c-1.2,0-2,0.6-2.2,0.8c-5.3,4.8-11.2,7.2-17.8,7.2
			c-5.9,0-16.1-2-20-5.8c-3.9-3.5-6.3-8.7-6.6-14.3l-0.1-1l1,0c0.5,0,55.1,0.8,56,0.8c0.9,0,1.7-0.4,2.3-1.1
			c2.5-2.7,2.6-10.2,2.3-14.2l0-0.1c-0.1-11.8-3.9-21.2-11.1-27.9c-7.5-6.9-20.3-10.8-33.5-10.1c-5.3,0.3-9.4,1-13.2,2.3
			c-4.6,1.6-8.8,4.2-12.2,7.6c-3.6,3.5-6.5,8.2-8.8,14.2c-2.2,5.8-3.4,13.3-3.4,22c0,9.1,1.3,16.6,3.9,22.3c2.4,6,5.6,10.8,9.4,14.1
			c1.9,1.6,4.1,3,6.3,4c9.3,5,18,5.6,24.3,6l0.5,0c0.5,0,19.6,0.5,35.4-15.1C618.2,368,618.3,367.8,618.4,367.5z M342.8,378.7
			c1.7-4.3,24.4-78.3,25.1-80.6l0.1-0.5c0-0.3-0.1-0.6-0.2-0.8c-0.4-0.8-3.8-3.8-9.7-4.5c-0.6-0.1-1.3-0.1-2-0.1
			c-4.2,0-8.7,1.5-9.5,3.1l-0.1,0.2l-16,56.4l-20.7-56.6c-0.6-1.7-4.7-3.3-8.3-3.3c-3.7,0-8.2,1.7-8.8,3.3l-0.6-0.2l0,0l0.6,0.2
			L274.8,351l-17.1-55.1l-0.1-0.3c-0.8-1.6-5.3-3.5-9.6-3.5c-0.4,0-2,0.2-2.9,0.2l-0.8,0.1c-5.6,0.5-7.6,3.2-8.1,4.3
			c-0.1,0.3-0.2,0.6-0.2,0.9l0,0.2l0,0.1l26.5,80.7c0.8,1.8,7.4,3,11.6,3c4.3,0,11.3-1.1,12.6-2.9l15.4-50.9l18.3,50.8
			c0.8,1.8,7.4,3,11.6,3C336.6,381.6,342,380.6,342.8,378.7"/>
	</g>
</g>
</svg>
